<svg width="24" height="24" viewBox="0 0 24 24" fill="none" xmlns="http://www.w3.org/2000/svg">
<path d="M13.002 8.00691C16.171 8.00691 17.968 10.1039 18.229 12.6369H18.309C18.7933 12.6362 19.273 12.731 19.7206 12.9157C20.1682 13.1005 20.5751 13.3716 20.918 13.7136C21.2608 14.0556 21.5329 14.4618 21.7188 14.909C21.9046 15.3562 22.0005 15.8356 22.001 16.3199C22.0004 16.8041 21.9044 17.2834 21.7185 17.7305C21.5326 18.1776 21.2604 18.5836 20.9176 18.9255C20.5748 19.2675 20.1679 19.5385 19.7204 19.7232C19.2728 19.9078 18.7932 20.0026 18.309 20.0019H7.69503C7.21085 20.0026 6.73128 19.9078 6.2837 19.7232C5.83612 19.5385 5.4293 19.2675 5.08647 18.9255C4.74363 18.5836 4.4715 18.1776 4.2856 17.7305C4.09971 17.2834 4.00369 16.8041 4.00303 16.3199C4.00356 15.8356 4.09948 15.3562 4.28532 14.909C4.47115 14.4618 4.74327 14.0556 5.08611 13.7136C5.42896 13.3716 5.83583 13.1005 6.28347 12.9157C6.73111 12.731 7.21077 12.6362 7.69503 12.6369H7.77503C8.03803 10.0869 9.83403 8.00691 13.002 8.00691V8.00691ZM13.002 9.50491C10.931 9.50491 9.12503 11.1379 9.12503 13.3939C9.12503 13.7509 8.80603 14.0319 8.44103 14.0319H7.75103C6.49003 14.0319 5.46703 15.0329 5.46703 16.2679C5.46703 17.5029 6.49003 18.5039 7.75103 18.5039H18.253C19.515 18.5039 20.537 17.5039 20.537 16.2679C20.537 15.0329 19.515 14.0319 18.253 14.0319H17.563C17.198 14.0319 16.879 13.7519 16.879 13.3939C16.879 11.1089 15.073 9.50391 13.002 9.50391V9.50491ZM4.36803 12.1619C4.43749 12.3295 4.44384 12.5166 4.38593 12.6885C4.32801 12.8604 4.20974 13.0055 4.05303 13.0969L3.96203 13.1419L3.03503 13.5259C2.85968 13.5974 2.66378 13.5999 2.48666 13.5329C2.30954 13.4659 2.16431 13.3344 2.08013 13.1648C1.99596 12.9952 1.97906 12.8 2.03283 12.6184C2.0866 12.4368 2.20706 12.2823 2.37003 12.1859L2.46103 12.1399L3.38803 11.7569C3.5717 11.6807 3.77811 11.6806 3.96188 11.7565C4.14565 11.8325 4.29174 11.9783 4.36803 12.1619V12.1619ZM10.855 7.32891L10.683 7.38691C10.1629 7.5692 9.67137 7.82441 9.22303 8.14491C8.74156 7.98851 8.22338 7.98562 7.74019 8.13662C7.257 8.28763 6.83268 8.58507 6.52594 8.9878C6.2192 9.39052 6.0452 9.87862 6.02802 10.3846C6.01084 10.8905 6.15132 11.3893 6.43003 11.8119C5.9423 11.9487 5.48044 12.1649 5.06303 12.4519C4.6047 11.6641 4.4335 10.7419 4.57857 9.8421C4.72363 8.94232 5.17599 8.1206 5.85868 7.51678C6.54136 6.91296 7.41218 6.56436 8.32295 6.53028C9.23371 6.49621 10.1281 6.77878 10.854 7.32991L10.855 7.32891ZM2.94003 7.35991L3.04503 7.39491L3.97203 7.77891C4.14616 7.8519 4.28635 7.98788 4.36461 8.15969C4.44288 8.33151 4.45346 8.52653 4.39425 8.70581C4.33504 8.88509 4.21039 9.03544 4.04518 9.12684C3.87998 9.21825 3.68638 9.24398 3.50303 9.19891L3.40003 9.16591L2.47303 8.78191C2.29891 8.70891 2.15872 8.57294 2.08046 8.40112C2.00219 8.2293 1.99161 8.03428 2.05082 7.855C2.11003 7.67573 2.23468 7.52538 2.39989 7.43397C2.56509 7.34257 2.75869 7.31683 2.94203 7.36191L2.94003 7.35991ZM6.75503 4.37391L6.80003 4.46491L7.18403 5.39191C7.25551 5.56726 7.258 5.76316 7.19102 5.94028C7.12404 6.1174 6.99254 6.26263 6.82291 6.34681C6.65329 6.43099 6.4581 6.44788 6.27654 6.39411C6.09497 6.34034 5.94046 6.21988 5.84403 6.05691L5.79803 5.96591L5.41503 5.03891C5.34356 4.86355 5.34107 4.66765 5.40805 4.49053C5.47503 4.31341 5.60653 4.16818 5.77616 4.084C5.94578 3.99983 6.14097 3.98293 6.32253 4.0367C6.5041 4.09047 6.65861 4.21093 6.75503 4.37391V4.37391ZM11.109 4.05491C11.2751 4.12382 11.4108 4.25007 11.4916 4.41067C11.5723 4.57127 11.5927 4.75553 11.549 4.92991L11.514 5.03491L11.131 5.96191C11.0592 6.1377 10.9233 6.27968 10.7508 6.35918C10.5783 6.43869 10.3821 6.4498 10.2018 6.39028C10.0214 6.33075 9.87035 6.20503 9.77909 6.03847C9.68783 5.87192 9.66315 5.67695 9.71003 5.49291L9.74503 5.38691L10.129 4.46091C10.1667 4.36989 10.222 4.28719 10.2916 4.21753C10.3612 4.14787 10.4439 4.09261 10.5349 4.05491C10.6259 4.01721 10.7235 3.9978 10.822 3.9978C10.9205 3.9978 11.018 4.01721 11.109 4.05491V4.05491Z" fill="black"/>
</svg>
