<svg width="24" height="24" viewBox="0 0 24 24" fill="none" xmlns="http://www.w3.org/2000/svg">
<path d="M1.18396 13.528C1.18396 14.424 1.44796 15.232 1.98396 15.936C2.51996 16.64 3.20796 17.112 4.04796 17.352C4.11996 17.36 4.18396 17.344 4.23996 17.288L5.17596 16.16C4.46396 16.16 3.84796 15.904 3.33596 15.384C2.82396 14.864 2.56796 14.248 2.56796 13.52C2.56796 12.856 2.79196 12.28 3.24796 11.784C3.70396 11.296 4.26396 11.008 4.93596 10.928L5.32796 10.904C5.43196 10.904 5.48796 10.856 5.48796 10.752L5.54396 10.32C5.63196 9.45601 5.99996 8.72801 6.64796 8.14401C7.29596 7.56001 8.06396 7.26401 8.93596 7.26401C9.81596 7.26401 10.584 7.56001 11.24 8.14401C11.896 8.72801 12.264 9.45601 12.352 10.32L12.408 10.792C12.44 10.88 12.504 10.928 12.584 10.928H13.896C14.6 10.928 15.208 11.184 15.72 11.688C16.232 12.192 16.488 12.808 16.488 13.512C16.488 14.184 16.264 14.776 15.808 15.28C15.352 15.784 14.808 16.064 14.152 16.12C13.76 16.168 13.52 16.24 13.432 16.344L11.68 18.6C11.6262 18.6713 11.5872 18.7526 11.5652 18.8391C11.5433 18.9257 11.5387 19.0157 11.552 19.104C11.576 19.288 11.656 19.44 11.8 19.552C11.92 19.688 12.08 19.744 12.28 19.72C12.48 19.696 12.64 19.6 12.76 19.432L14.296 17.464C14.952 17.4 15.552 17.184 16.096 16.808C16.64 16.44 17.064 15.96 17.384 15.376C17.696 14.792 17.856 14.168 17.856 13.504C17.856 12.928 17.744 12.392 17.52 11.896C18.152 11.128 18.464 10.24 18.464 9.23201C18.464 8.66401 18.352 8.12801 18.128 7.60801C17.9151 7.10646 17.6082 6.65026 17.224 6.26401C16.848 5.88801 16.4 5.59201 15.88 5.36801C15.36 5.14401 14.816 5.03201 14.248 5.03201C13.048 5.03201 12.016 5.49601 11.144 6.42401C10.512 6.07201 9.78396 5.89601 8.96796 5.89601C7.83996 5.89601 6.83996 6.24801 5.96796 6.95201C5.09596 7.65601 4.54396 8.55201 4.31196 9.64801C3.40796 9.85601 2.66396 10.312 2.07996 11.032C1.49596 11.752 1.18396 12.608 1.18396 13.528V13.528ZM4.30396 20.12C4.35996 20.296 4.48796 20.424 4.67196 20.504C4.84796 20.584 5.02396 20.584 5.20796 20.512C5.39196 20.44 5.51196 20.312 5.57596 20.136C5.61347 20.0587 5.63296 19.9739 5.63296 19.888C5.63296 19.8021 5.61347 19.7173 5.57596 19.64C5.50679 19.4762 5.37816 19.3448 5.21596 19.272C5.13416 19.2319 5.04474 19.2098 4.95369 19.207C4.86263 19.2042 4.77204 19.2209 4.68796 19.256C4.51196 19.328 4.39196 19.448 4.32796 19.624C4.25596 19.824 4.24796 19.992 4.30396 20.12V20.12ZM5.75196 17.928V18.016C5.76796 18.192 5.84796 18.336 5.99196 18.456C6.13596 18.576 6.29596 18.632 6.49596 18.616C6.68796 18.6 6.83996 18.52 6.95196 18.384L8.69596 16.128C8.80796 15.984 8.86396 15.816 8.84796 15.624C8.83196 15.432 8.75196 15.28 8.61596 15.168C8.54663 15.1099 8.4662 15.0664 8.37956 15.0403C8.29293 15.0141 8.20188 15.0059 8.11196 15.016C7.91996 15.032 7.75996 15.12 7.63196 15.264L5.91196 17.504C5.79996 17.632 5.75196 17.776 5.75196 17.928V17.928ZM6.15996 21.816C6.15996 21.864 6.17596 21.944 6.20796 22.056C6.27996 22.232 6.39996 22.352 6.57596 22.424C6.66396 22.456 6.75996 22.48 6.86396 22.48C6.93596 22.48 7.02396 22.464 7.11196 22.44C7.27996 22.376 7.39996 22.256 7.46396 22.088C7.54396 21.912 7.55196 21.736 7.47996 21.552C7.45306 21.4667 7.40645 21.389 7.34391 21.325C7.28136 21.2611 7.20464 21.2128 7.11996 21.184C6.94396 21.104 6.76796 21.104 6.58396 21.176C6.39996 21.248 6.27996 21.368 6.22396 21.536C6.18396 21.624 6.15996 21.72 6.15996 21.816V21.816ZM7.49596 19.92V20C7.51196 20.184 7.59996 20.336 7.75996 20.464C7.87996 20.592 8.03996 20.648 8.23996 20.624C8.33466 20.6152 8.42642 20.5864 8.50916 20.5395C8.59191 20.4927 8.66376 20.4287 8.71996 20.352L12.032 16.168C12.144 16.008 12.184 15.84 12.168 15.656C12.152 15.472 12.064 15.32 11.92 15.184C11.8509 15.1287 11.7713 15.0881 11.686 15.0647C11.6007 15.0413 11.5115 15.0356 11.424 15.048C11.24 15.072 11.088 15.152 10.976 15.296L7.64796 19.504C7.54396 19.624 7.49596 19.768 7.49596 19.92V19.92ZM7.95996 3.68801C7.95996 3.88001 8.03196 4.04001 8.17596 4.16001L8.66396 4.68801C8.79196 4.81601 8.93596 4.88001 9.09596 4.89601C9.26396 4.92001 9.42396 4.86401 9.58396 4.72001C9.74396 4.57601 9.82396 4.40801 9.82396 4.20801C9.82396 4.03201 9.75996 3.86401 9.63196 3.72801L9.11996 3.20801C9.06095 3.14456 8.98896 3.09456 8.90889 3.06143C8.82882 3.0283 8.74255 3.01281 8.65596 3.01601C8.46396 3.01601 8.29596 3.08001 8.15996 3.20801C8.03196 3.34401 7.95996 3.50401 7.95996 3.68801V3.68801ZM10.32 20.832C10.32 20.928 10.336 21.008 10.376 21.08C10.448 21.256 10.568 21.376 10.736 21.448C10.824 21.488 10.912 21.512 11.016 21.512C11.064 21.512 11.144 21.496 11.256 21.464C11.432 21.392 11.56 21.272 11.624 21.096C11.6641 21.0142 11.6862 20.9248 11.689 20.8337C11.6917 20.7427 11.675 20.6521 11.64 20.568C11.6116 20.4844 11.5644 20.4084 11.502 20.346C11.4395 20.2836 11.3636 20.2364 11.28 20.208C11.1967 20.1679 11.106 20.1457 11.0137 20.143C10.9213 20.1402 10.8294 20.1569 10.744 20.192C10.66 20.2214 10.5836 20.2689 10.52 20.3311C10.4564 20.3933 10.4072 20.4687 10.376 20.552C10.336 20.64 10.32 20.736 10.32 20.832ZM12.24 7.22401C12.808 6.71201 13.464 6.44801 14.224 6.44801C15.016 6.44801 15.688 6.72001 16.248 7.27201C16.808 7.82401 17.088 8.48001 17.088 9.26401C17.088 9.79201 16.952 10.288 16.672 10.752C15.896 9.97601 14.968 9.59201 13.888 9.59201H13.616C13.4095 8.68082 12.9294 7.85455 12.24 7.22401ZM13.544 3.01601C13.544 3.20001 13.608 3.36001 13.744 3.48801C13.88 3.61601 14.04 3.68001 14.224 3.68001C14.416 3.68001 14.584 3.61601 14.72 3.48801C14.856 3.36001 14.92 3.20001 14.92 3.01601V1.36001C14.92 1.17601 14.848 1.01601 14.712 0.88001C14.6484 0.815413 14.5723 0.764383 14.4885 0.730007C14.4046 0.695631 14.3146 0.678623 14.224 0.68001C14.04 0.68001 13.88 0.74401 13.744 0.88001C13.608 1.01601 13.544 1.17601 13.544 1.36001V3.01601V3.01601ZM18 4.84001C18 5.03201 18.056 5.19201 18.176 5.32001C18.32 5.45601 18.48 5.52001 18.664 5.52801C18.848 5.52801 19 5.46401 19.12 5.32001L20.32 4.16001C20.448 4.03201 20.512 3.86401 20.512 3.67201C20.512 3.48001 20.44 3.32001 20.304 3.18401C20.2423 3.11849 20.168 3.06625 20.0854 3.03049C20.0029 2.99472 19.9139 2.97618 19.824 2.97601C19.648 2.97601 19.488 3.04001 19.344 3.17601L18.184 4.35201C18.0631 4.48555 17.9974 4.65993 18 4.84001V4.84001ZM18.624 14.36C18.624 14.552 18.688 14.712 18.816 14.84L19.344 15.344C19.472 15.472 19.616 15.544 19.776 15.56H19.824C19.968 15.56 20.128 15.488 20.32 15.344C20.448 15.216 20.512 15.056 20.512 14.88C20.512 14.688 20.448 14.52 20.32 14.376L19.792 13.88C19.732 13.8151 19.6589 13.7637 19.5775 13.7292C19.4961 13.6948 19.4083 13.678 19.32 13.68C19.128 13.68 18.96 13.744 18.824 13.88C18.7604 13.9427 18.71 14.0175 18.6757 14.0999C18.6413 14.1823 18.6237 14.2707 18.624 14.36V14.36ZM19.824 9.26401C19.824 9.45601 19.888 9.61601 20.016 9.74401C20.144 9.88801 20.304 9.96001 20.496 9.96001H22.128C22.32 9.96001 22.48 9.88801 22.616 9.75201C22.752 9.61601 22.816 9.44801 22.816 9.26401C22.816 9.08001 22.752 8.92001 22.616 8.79201C22.5513 8.72941 22.4749 8.68021 22.3911 8.64726C22.3074 8.61431 22.2179 8.59825 22.128 8.60001H20.496C20.304 8.60001 20.144 8.66401 20.016 8.79201C19.888 8.92001 19.824 9.08001 19.824 9.26401Z" fill="black"/>
</svg>
