<svg width="24" height="24" viewBox="0 0 24 24" fill="none" xmlns="http://www.w3.org/2000/svg">
<path d="M12 1.5C12.1989 1.5 12.3897 1.57902 12.5303 1.71967C12.671 1.86032 12.75 2.05109 12.75 2.25V3.75C12.75 3.94891 12.671 4.13968 12.5303 4.28033C12.3897 4.42098 12.1989 4.5 12 4.5C11.8011 4.5 11.6103 4.42098 11.4697 4.28033C11.329 4.13968 11.25 3.94891 11.25 3.75V2.25C11.25 2.05109 11.329 1.86032 11.4697 1.71967C11.6103 1.57902 11.8011 1.5 12 1.5V1.5ZM12 17.25C13.3924 17.25 14.7277 16.6969 15.7123 15.7123C16.6969 14.7277 17.25 13.3924 17.25 12C17.25 10.6076 16.6969 9.27226 15.7123 8.28769C14.7277 7.30312 13.3924 6.75 12 6.75C10.6076 6.75 9.27226 7.30312 8.28769 8.28769C7.30312 9.27226 6.75 10.6076 6.75 12C6.75 13.3924 7.30312 14.7277 8.28769 15.7123C9.27226 16.6969 10.6076 17.25 12 17.25V17.25ZM12 15.75C11.0054 15.75 10.0516 15.3549 9.34835 14.6517C8.64509 13.9484 8.25 12.9946 8.25 12C8.25 11.0054 8.64509 10.0516 9.34835 9.34835C10.0516 8.64509 11.0054 8.25 12 8.25C12.9946 8.25 13.9484 8.64509 14.6517 9.34835C15.3549 10.0516 15.75 11.0054 15.75 12C15.75 12.9946 15.3549 13.9484 14.6517 14.6517C13.9484 15.3549 12.9946 15.75 12 15.75ZM21.75 12.75C21.9489 12.75 22.1397 12.671 22.2803 12.5303C22.421 12.3897 22.5 12.1989 22.5 12C22.5 11.8011 22.421 11.6103 22.2803 11.4697C22.1397 11.329 21.9489 11.25 21.75 11.25H20.25C20.0511 11.25 19.8603 11.329 19.7197 11.4697C19.579 11.6103 19.5 11.8011 19.5 12C19.5 12.1989 19.579 12.3897 19.7197 12.5303C19.8603 12.671 20.0511 12.75 20.25 12.75H21.75ZM12 19.5C12.1989 19.5 12.3897 19.579 12.5303 19.7197C12.671 19.8603 12.75 20.0511 12.75 20.25V21.75C12.75 21.9489 12.671 22.1397 12.5303 22.2803C12.3897 22.421 12.1989 22.5 12 22.5C11.8011 22.5 11.6103 22.421 11.4697 22.2803C11.329 22.1397 11.25 21.9489 11.25 21.75V20.25C11.25 20.0511 11.329 19.8603 11.4697 19.7197C11.6103 19.579 11.8011 19.5 12 19.5V19.5ZM3.75 12.75C3.94891 12.75 4.13968 12.671 4.28033 12.5303C4.42098 12.3897 4.5 12.1989 4.5 12C4.5 11.8011 4.42098 11.6103 4.28033 11.4697C4.13968 11.329 3.94891 11.25 3.75 11.25H2.25C2.05109 11.25 1.86032 11.329 1.71967 11.4697C1.57902 11.6103 1.5 11.8011 1.5 12C1.5 12.1989 1.57902 12.3897 1.71967 12.5303C1.86032 12.671 2.05109 12.75 2.25 12.75H3.75ZM3.9705 3.9705C4.11115 3.8299 4.30188 3.75091 4.50075 3.75091C4.69962 3.75091 4.89035 3.8299 5.031 3.9705L6.531 5.4705C6.66762 5.61195 6.74321 5.8014 6.74151 5.99805C6.7398 6.1947 6.66092 6.38281 6.52186 6.52186C6.38281 6.66092 6.1947 6.7398 5.99805 6.74151C5.8014 6.74321 5.61195 6.66762 5.4705 6.531L3.9705 5.031C3.8299 4.89035 3.75091 4.69962 3.75091 4.50075C3.75091 4.30188 3.8299 4.11115 3.9705 3.9705V3.9705ZM5.031 20.031C4.88955 20.1676 4.7001 20.2432 4.50345 20.2415C4.3068 20.2398 4.11869 20.1609 3.97964 20.0219C3.84058 19.8828 3.7617 19.6947 3.75999 19.4981C3.75829 19.3014 3.83388 19.112 3.9705 18.9705L5.4705 17.4705C5.53969 17.3989 5.62244 17.3417 5.71395 17.3024C5.80545 17.2631 5.90386 17.2424 6.00345 17.2416C6.10303 17.2407 6.20179 17.2597 6.29397 17.2974C6.38614 17.3351 6.46988 17.3908 6.5403 17.4612C6.61072 17.5316 6.66641 17.6154 6.70412 17.7075C6.74183 17.7997 6.7608 17.8985 6.75994 17.9981C6.75907 18.0976 6.73838 18.196 6.69908 18.2876C6.65977 18.3791 6.60263 18.4618 6.531 18.531L5.031 20.031V20.031ZM20.031 3.9705C19.8904 3.8299 19.6996 3.75091 19.5007 3.75091C19.3019 3.75091 19.1111 3.8299 18.9705 3.9705L17.4705 5.4705C17.3339 5.61195 17.2583 5.8014 17.26 5.99805C17.2617 6.1947 17.3406 6.38281 17.4796 6.52186C17.6187 6.66092 17.8068 6.7398 18.0034 6.74151C18.2001 6.74321 18.3895 6.66762 18.531 6.531L20.031 5.031C20.1716 4.89035 20.2506 4.69962 20.2506 4.50075C20.2506 4.30188 20.1716 4.11115 20.031 3.9705V3.9705ZM18.9705 20.031C19.112 20.1676 19.3014 20.2432 19.4981 20.2415C19.6947 20.2398 19.8828 20.1609 20.0219 20.0219C20.1609 19.8828 20.2398 19.6947 20.2415 19.4981C20.2432 19.3014 20.1676 19.112 20.031 18.9705L18.531 17.4705C18.4618 17.3989 18.3791 17.3417 18.2876 17.3024C18.196 17.2631 18.0976 17.2424 17.9981 17.2416C17.8985 17.2407 17.7997 17.2597 17.7075 17.2974C17.6154 17.3351 17.5316 17.3908 17.4612 17.4612C17.3908 17.5316 17.3351 17.6154 17.2974 17.7075C17.2597 17.7997 17.2407 17.8985 17.2416 17.9981C17.2424 18.0976 17.2631 18.196 17.3024 18.2876C17.3417 18.3791 17.3989 18.4618 17.4705 18.531L18.9705 20.031Z" fill="black"/>
</svg>
